# xmcd
#
# Track frame offsets:
# 150
# 16574
# 26760
# 41151
# 56997
# 72947
# 84436
# 97694
# 113781
# 127079
# 139636
# 153725
# 165933
#
# Disc length: 2412 seconds
#
#
# Revision: 3
# Processed by: cddbd v1.5.1PL0 Copyright (c) Steve Scherf et al.
# Submitted via: FreeRIP 2.70 
#
DISCID=a3096a0d
DTITLE=LUIS MIGUEL - MÉXICO EN LA PIEL
DYEAR=2004
DGENRE=Folklore
TTITLE0=El Viajero
TTITLE1=Entrega Total
TTITLE2=Echame a Mi la Culpa
TTITLE3=Mexico en la Piel
TTITLE4=Cruz de Olvido
TTITLE5=De Que Manera te Olvido
TTITLE6=Luz de Luna
TTITLE7=Motivos
TTITLE8=Cielo Rojo
TTITLE9=Paloma Querida
TTITLE10=Que Seas Feliz
TTITLE11=Un Mundo Raro
TTITLE12=Sabes una Cosa
EXTD=YEAR: 2004
EXTT0=
EXTT1=
EXTT2=
EXTT3=
EXTT4=
EXTT5=
EXTT6=
EXTT7=
EXTT8=
EXTT9=
EXTT10=
EXTT11=
EXTT12=
PLAYORDER=
